<?xml version="1.0" encoding="UTF-8" standalone="no"?>
<svg
   xmlns:dc="http://purl.org/dc/elements/1.1/"
   xmlns:cc="http://creativecommons.org/ns#"
   xmlns:rdf="http://www.w3.org/1999/02/22-rdf-syntax-ns#"
   xmlns:svg="http://www.w3.org/2000/svg"
   xmlns="http://www.w3.org/2000/svg"
   xmlns:sodipodi="http://sodipodi.sourceforge.net/DTD/sodipodi-0.dtd"
   xmlns:inkscape="http://www.inkscape.org/namespaces/inkscape"
   width="294.01566pt"
   height="251.57277pt"
   viewBox="0 0 294.01566 251.57277"
   version="1.1"
   id="svg957"
   sodipodi:docname="icon.svg"
   inkscape:version="0.92.2 (5c3e80d, 2017-08-06)">
  <metadata
     id="metadata963">
    <rdf:RDF>
      <cc:Work
         rdf:about="">
        <dc:format>image/svg+xml</dc:format>
        <dc:type
           rdf:resource="http://purl.org/dc/dcmitype/StillImage" />
        <dc:title></dc:title>
      </cc:Work>
    </rdf:RDF>
  </metadata>
  <defs
     id="defs961" />
  <sodipodi:namedview
     pagecolor="#ffffff"
     bordercolor="#666666"
     borderopacity="1"
     objecttolerance="10"
     gridtolerance="10"
     guidetolerance="10"
     inkscape:pageopacity="0"
     inkscape:pageshadow="2"
     inkscape:window-width="1359"
     inkscape:window-height="930"
     id="namedview959"
     showgrid="false"
     inkscape:zoom="0.55981045"
     inkscape:cx="-140.40018"
     inkscape:cy="-91.597335"
     inkscape:window-x="26"
     inkscape:window-y="26"
     inkscape:window-maximized="0"
     inkscape:current-layer="svg957"
     fit-margin-top="0"
     fit-margin-left="0"
     fit-margin-right="0"
     fit-margin-bottom="0" />
  <path
     inkscape:connector-curvature="0"
     id="path890"
     d="M 121.18836,0.50909177 C 109.0868,2.1223728 94.70399,8.4973728 87.88758,15.266904 l -2.69922,2.683594 9.39844,81.5 3.14844,1.898442 c 1.70312,1.02734 3.3125,2.42969 3.5,3.05078 0.25781,0.83594 3.65234,0.67187 12.45312,-0.59766 l 12.09766,-1.75 1.90234,-3.550781 c 1.28125,-2.402343 3,-3.90625 5.29688,-4.652343 l 3.40234,-1.097657 11.19922,-40.402343 c 6.15625,-22.199219 11.49219,-41.59375 11.85156,-43.0468762 0.60156,-2.46875 0.25,-2.796874 -5.15234,-4.773437 -10.80078,-3.94921903 -22.7461,-5.39843703 -33.09766,-4.01953103"
     style="fill:#1e4c5a;fill-opacity:1;fill-rule:nonzero;stroke:none" />
  <path
     inkscape:connector-curvature="0"
     id="path892"
     d="m 172.18836,7.8997168 c -3.5,0.792969 -6.51562,1.585937 -6.65234,1.75 -1.16797,1.4023432 -23.17969,84.4726562 -22.55078,85.1015622 0.57031,0.566407 92.20312,-53.769531 96.10156,-56.988281 0.96484,-0.796875 -3.37109,-7.8125 -7.73438,-12.511719 C 220.80946,13.891904 206.28602,7.6536228 188.5868,6.8840918 c -6.60156,-0.285156 -12.17578,0.058594 -16.39844,1.015625"
     style="fill:#42797c;fill-opacity:1;fill-rule:nonzero;stroke:none" />
  <path
     inkscape:connector-curvature="0"
     id="path894"
     d="m 70.88758,21.868467 c -21.5,7.441406 -43.22266,25.976562 -50.37109,42.980469 l -1.42969,3.402343 33.05078,17.097657 c 27.89844,14.437502 33.33594,16.921874 34.89844,15.953124 1.4414,-0.89843 1.73828,-1.953124 1.35156,-4.75 -0.27734,-1.980468 -2.37109,-20 -4.65234,-40 -2.27735,-20 -4.59766,-36.535156 -5.14844,-36.703124 -0.55078,-0.164063 -4,0.738281 -7.69922,2.019531"
     style="fill:#42797c;fill-opacity:1;fill-rule:nonzero;stroke:none" />
  <path
     inkscape:connector-curvature="0"
     id="path896"
     d="m 194.63758,71.751279 -47.94922,29.199221 3.94922,0.69922 c 2.17578,0.38672 17.05078,2.13672 33.14844,3.90234 l 29.19922,3.19922 3.25,-2.75 c 2.78906,-2.35937 4,-2.69922 8.5,-2.40234 l 5.25,0.35156 21.45312,-15.449221 21.44922,-15.449219 -1.58594,-4.101562 c -3.65625,-9.457031 -12.21484,-18.480469 -22.41406,-23.625 -3.10156,-1.5625 -5.83594,-2.851562 -6,-2.824219 -0.16406,0.02734 -21.85156,13.171875 -48.25,29.25"
     style="fill:#729f88;fill-opacity:1;fill-rule:nonzero;stroke:none" />
  <path
     inkscape:connector-curvature="0"
     id="path898"
     d="m 12.0868,79.149717 c -2.3828099,2.660156 -5.8710899,8.101562 -7.8281299,12.199219 -7.34375,15.402344 -5.07812,33.371094 5.9335999,47.101564 6.6875,8.33203 22.49609,16.70312 34.99609,18.52734 l 4.59766,0.67188 15.30078,-18.84766 c 8.44141,-10.40234 15.85937,-19.52343 16.55078,-20.35156 0.79688,-0.95703 1.06641,-3.19922 0.75,-6.19922 l -0.5,-4.69922 L 50.3368,91.251279 C 32.93836,82.262998 18.24696,74.817686 17.5868,74.649717 c -0.64844,-0.164063 -3.17188,1.902343 -5.5,4.5"
     style="fill:#729f88;fill-opacity:1;fill-rule:nonzero;stroke:none" />
  <path
     inkscape:connector-curvature="0"
     id="path900"
     d="m 256.53602,92.55206 c -11.5,8.28907 -21.625,15.77735 -22.44922,16.59766 -1.34766,1.34766 0.60156,1.44141 19,0.90234 11.30078,-0.33203 23.82031,-0.60156 27.89844,-0.60156 h 7.40234 l -0.69531,-6 c -0.98828,-8.500002 -3.02735,-14.660158 -6.85156,-20.699221 l -3.35547,-5.300781 -20.94922,15.101562"
     style="fill:#729f88;fill-opacity:1;fill-rule:nonzero;stroke:none" />
  <path
     inkscape:connector-curvature="0"
     id="path902"
     d="m 117.5868,109.138 c -14.30078,2.04297 -15.5,2.33594 -15.5,3.8125 0,0.76563 -1.06641,2.64844 -2.35156,4.14844 -1.74219,2.04297 -3.59766,2.89453 -7.19922,3.30078 l -4.84766,0.55078 -15.40234,18.85156 c -14.94922,18.29688 -15.35938,18.92188 -14.07031,21.34766 4.54687,8.5664 16.67187,17.90625 27.76953,21.39844 8.40234,2.64453 23.16406,2.90234 31.30078,0.55078 5.19922,-1.50391 5.75,-1.9336 6.25,-4.89844 0.30469,-1.78516 2.35547,-17.05078 4.55078,-33.85156 l 4,-30.59766 -2.75,-2.94922 -2.75,-2.95312 -9,1.28906"
     style="fill:#42797c;fill-opacity:1;fill-rule:nonzero;stroke:none" />
  <path
     inkscape:connector-curvature="0"
     id="path904"
     d="m 144.3368,110.00128 c -1.27344,1.5 -2.25,3.25781 -2.25,4.05078 0,1.46485 14.72656,69 15.52734,71.19922 0.26953,0.74219 12.4375,-12.90234 28.44922,-31.90234 28.0586,-33.29688 29.1875,-34.9375 26.20703,-38 -0.3789,-0.38281 -13.48437,-2.08985 -29.18359,-3.79688 -15.69922,-1.71093 -30.29688,-3.34765 -32.5,-3.65234 -3.39844,-0.46875 -4.33594,-0.15234 -6.25,2.10156"
     style="fill:#1e4c5a;fill-opacity:1;fill-rule:nonzero;stroke:none" />
  <path
     inkscape:connector-curvature="0"
     id="path906"
     d="m 250.93836,116.2005 c -14.80078,0.21094 -17.75,0.5 -18.25,1.80078 -0.41406,1.0586 6.86719,9.64844 23.09766,27.25 13.0039,14.09766 24.0625,25.69922 24.5,25.69922 1.5625,0 8.73828,-10.69922 10.86328,-16.19922 3.88281,-10.04687 3.8125,-26.40234 -0.16016,-36.5 l -1.10156,-2.80078 -10.65234,0.25 c -5.85157,0.13672 -18.59766,0.36328 -28.29688,0.5"
     style="fill:#42797c;fill-opacity:1;fill-rule:nonzero;stroke:none" />
  <path
     inkscape:connector-curvature="0"
     id="path908"
     d="m 136.74305,126.4505 c -0.95313,5.19922 -6.65625,48.89453 -6.65625,51 0,2.28516 7.89844,7.28125 15.69922,9.92969 3.19922,1.08593 5.89062,1.8789 5.99609,1.76953 0.23047,-0.23047 -13.3164,-63.09766 -14.04687,-65.19922 -0.1875,-0.54297 -0.64063,0.60156 -0.99219,2.5"
     style="fill:#729f88;fill-opacity:1;fill-rule:nonzero;stroke:none" />
  <path
     inkscape:connector-curvature="0"
     id="path910"
     d="m 225.66102,124.55206 c -0.78906,2.39844 -5.79297,91.97656 -5.17578,92.59766 0.33203,0.33203 4.10156,-0.41406 8.40234,-1.66406 16,-4.64454 31.97656,-15.35157 40.79688,-27.33594 8.63671,-11.73438 10.46875,-7.69922 -17.1211,-37.69922 -13.33203,-14.5 -24.77344,-26.57812 -25.375,-26.80078 -0.59375,-0.21484 -1.29687,0.19922 -1.52734,0.90234"
     style="fill:#1e4c5a;fill-opacity:1;fill-rule:nonzero;stroke:none" />
  <path
     inkscape:connector-curvature="0"
     id="path912"
     d="m 189.73524,158.30206 -28.84766,34.25 2.82813,4.29688 c 4.54296,6.90234 54.61328,57.53125 53.99609,54.60156 -0.28906,-1.375 -1.26172,-8.80078 -2.15625,-16.5 -1.79688,-15.39063 -1.73438,-18.19922 1.64062,-73.89844 1.09375,-18 1.85547,-33.75 1.69141,-34.90234 -0.22656,-1.57422 -7.50391,6.44922 -29.15234,32.15234"
     style="fill:#729f88;fill-opacity:1;fill-rule:nonzero;stroke:none" />
</svg>
