<?xml version="1.0" encoding="UTF-8" standalone="no"?>
<svg
   xmlns:dc="http://purl.org/dc/elements/1.1/"
   xmlns:cc="http://creativecommons.org/ns#"
   xmlns:rdf="http://www.w3.org/1999/02/22-rdf-syntax-ns#"
   xmlns:svg="http://www.w3.org/2000/svg"
   xmlns="http://www.w3.org/2000/svg"
   xmlns:sodipodi="http://sodipodi.sourceforge.net/DTD/sodipodi-0.dtd"
   xmlns:inkscape="http://www.inkscape.org/namespaces/inkscape"
   width="132.9935pt"
   height="25.57277pt"
   viewBox="0 0 1327.9935 251.57277"
   version="1.1"
   id="svg957"
   sodipodi:docname="banner.svg"
   inkscape:version="0.92.2 (5c3e80d, 2017-08-06)">
  <metadata
     id="metadata963">
    <rdf:RDF>
      <cc:Work
         rdf:about="">
        <dc:format>image/svg+xml</dc:format>
        <dc:type
           rdf:resource="http://purl.org/dc/dcmitype/StillImage" />
        <dc:title></dc:title>
      </cc:Work>
    </rdf:RDF>
  </metadata>
  <defs
     id="defs961" />
  <sodipodi:namedview
     pagecolor="#ffffff"
     bordercolor="#666666"
     borderopacity="1"
     objecttolerance="10"
     gridtolerance="10"
     guidetolerance="10"
     inkscape:pageopacity="0"
     inkscape:pageshadow="2"
     inkscape:window-width="1920"
     inkscape:window-height="1017"
     id="namedview959"
     showgrid="false"
     inkscape:zoom="0.55981045"
     inkscape:cx="923.35276"
     inkscape:cy="138.83781"
     inkscape:window-x="-8"
     inkscape:window-y="-8"
     inkscape:window-maximized="1"
     inkscape:current-layer="svg957"
     fit-margin-top="0"
     fit-margin-left="0"
     fit-margin-right="0"
     fit-margin-bottom="0" />
  <g
     id="g5316"
     transform="translate(-680.9132,-0.54950223)">
    <path
       style="fill:#1e4c5a;fill-opacity:1;fill-rule:nonzero;stroke:none"
       d="M 802.10156,1.058594 C 790,2.671875 775.61719,9.046875 768.80078,15.816406 L 766.10156,18.5 775.5,100 l 3.14844,1.89844 c 1.70312,1.02734 3.3125,2.42969 3.5,3.05078 0.25781,0.83594 3.65234,0.67187 12.45312,-0.59766 l 12.09766,-1.75 1.90234,-3.550779 c 1.28125,-2.402343 3,-3.90625 5.29688,-4.652343 L 817.30078,93.300781 828.5,52.898438 c 6.15625,-22.199219 11.49219,-41.59375 11.85156,-43.046876 0.60156,-2.46875 0.25,-2.796874 -5.15234,-4.773437 -10.80078,-3.949219 -22.7461,-5.398437 -33.09766,-4.019531"
       id="path890"
       inkscape:connector-curvature="0" />
    <path
       style="fill:#42797c;fill-opacity:1;fill-rule:nonzero;stroke:none"
       d="m 853.10156,8.449219 c -3.5,0.792969 -6.51562,1.585937 -6.65234,1.75 -1.16797,1.402343 -23.17969,84.472656 -22.55078,85.101562 C 824.46875,95.867188 916.10156,41.53125 920,38.3125 920.96484,37.515625 916.62891,30.5 912.26562,25.800781 901.72266,14.441406 887.19922,8.203125 869.5,7.433594 862.89844,7.148438 857.32422,7.492188 853.10156,8.449219"
       id="path892"
       inkscape:connector-curvature="0" />
    <path
       style="fill:#42797c;fill-opacity:1;fill-rule:nonzero;stroke:none"
       d="m 751.80078,22.417969 c -21.5,7.441406 -43.22266,25.976562 -50.37109,42.980469 L 700,68.800781 733.05078,85.898438 c 27.89844,14.437502 33.33594,16.921872 34.89844,15.953122 1.4414,-0.89843 1.73828,-1.953122 1.35156,-4.749998 -0.27734,-1.980468 -2.37109,-20 -4.65234,-40 -2.27735,-20 -4.59766,-36.535156 -5.14844,-36.703124 -0.55078,-0.164063 -4,0.738281 -7.69922,2.019531"
       id="path894"
       inkscape:connector-curvature="0" />
    <path
       style="fill:#729f88;fill-opacity:1;fill-rule:nonzero;stroke:none"
       d="M 875.55078,72.300781 827.60156,101.5 l 3.94922,0.69922 c 2.17578,0.38672 17.05078,2.13672 33.14844,3.90234 l 29.19922,3.19922 3.25,-2.75 c 2.78906,-2.35937 4,-2.69922 8.5,-2.40234 l 5.25,0.35156 L 932.35156,89.050781 953.80078,73.601562 952.21484,69.5 C 948.55859,60.042969 940,51.019531 929.80078,45.875 c -3.10156,-1.5625 -5.83594,-2.851562 -6,-2.824219 -0.16406,0.02734 -21.85156,13.171875 -48.25,29.25"
       id="path896"
       inkscape:connector-curvature="0" />
    <path
       style="fill:#729f88;fill-opacity:1;fill-rule:nonzero;stroke:none"
       d="m 693,79.699219 c -2.38281,2.660156 -5.87109,8.101562 -7.82813,12.199219 -7.34375,15.402342 -5.07812,33.371092 5.9336,47.101562 6.6875,8.33203 22.49609,16.70312 34.99609,18.52734 l 4.59766,0.67188 L 746,139.35156 c 8.44141,-10.40234 15.85937,-19.52343 16.55078,-20.35156 0.79688,-0.95703 1.06641,-3.19922 0.75,-6.19922 l -0.5,-4.69922 L 731.25,91.800781 C 713.85156,82.8125 699.16016,75.367188 698.5,75.199219 c -0.64844,-0.164063 -3.17188,1.902343 -5.5,4.5"
       id="path898"
       inkscape:connector-curvature="0" />
    <path
       style="fill:#729f88;fill-opacity:1;fill-rule:nonzero;stroke:none"
       d="m 937.44922,93.101562 c -11.5,8.289068 -21.625,15.777348 -22.44922,16.597658 -1.34766,1.34766 0.60156,1.44141 19,0.90234 C 945.30078,110.26953 957.82031,110 961.89844,110 h 7.40234 l -0.69531,-6 c -0.98828,-8.5 -3.02735,-14.660156 -6.85156,-20.699219 L 958.39844,78 937.44922,93.101562"
       id="path900"
       inkscape:connector-curvature="0" />
    <path
       style="fill:#42797c;fill-opacity:1;fill-rule:nonzero;stroke:none"
       d="m 798.5,109.6875 c -14.30078,2.04297 -15.5,2.33594 -15.5,3.8125 0,0.76563 -1.06641,2.64844 -2.35156,4.14844 -1.74219,2.04297 -3.59766,2.89453 -7.19922,3.30078 l -4.84766,0.55078 -15.40234,18.85156 c -14.94922,18.29688 -15.35938,18.92188 -14.07031,21.34766 4.54687,8.5664 16.67187,17.90625 27.76953,21.39844 8.40234,2.64453 23.16406,2.90234 31.30078,0.55078 5.19922,-1.50391 5.75,-1.9336 6.25,-4.89844 0.30469,-1.78516 2.35547,-17.05078 4.55078,-33.85156 l 4,-30.59766 -2.75,-2.94922 -2.75,-2.95312 -9,1.28906"
       id="path902"
       inkscape:connector-curvature="0" />
    <path
       style="fill:#1e4c5a;fill-opacity:1;fill-rule:nonzero;stroke:none"
       d="m 825.25,110.55078 c -1.27344,1.5 -2.25,3.25781 -2.25,4.05078 0,1.46485 14.72656,69 15.52734,71.19922 0.26953,0.74219 12.4375,-12.90234 28.44922,-31.90234 28.0586,-33.29688 29.1875,-34.9375 26.20703,-38 -0.3789,-0.38281 -13.48437,-2.08985 -29.18359,-3.79688 -15.69922,-1.71093 -30.29688,-3.34765 -32.5,-3.65234 -3.39844,-0.46875 -4.33594,-0.15234 -6.25,2.10156"
       id="path904"
       inkscape:connector-curvature="0" />
    <path
       style="fill:#42797c;fill-opacity:1;fill-rule:nonzero;stroke:none"
       d="m 931.85156,116.75 c -14.80078,0.21094 -17.75,0.5 -18.25,1.80078 -0.41406,1.0586 6.86719,9.64844 23.09766,27.25 13.0039,14.09766 24.0625,25.69922 24.5,25.69922 1.5625,0 8.73828,-10.69922 10.86328,-16.19922 3.88281,-10.04687 3.8125,-26.40234 -0.16016,-36.5 L 970.80078,116 l -10.65234,0.25 c -5.85157,0.13672 -18.59766,0.36328 -28.29688,0.5"
       id="path906"
       inkscape:connector-curvature="0" />
    <path
       style="fill:#729f88;fill-opacity:1;fill-rule:nonzero;stroke:none"
       d="M 817.65625,127 C 816.70312,132.19922 811,175.89453 811,178 c 0,2.28516 7.89844,7.28125 15.69922,9.92969 3.19922,1.08593 5.89062,1.8789 5.99609,1.76953 0.23047,-0.23047 -13.3164,-63.09766 -14.04687,-65.19922 -0.1875,-0.54297 -0.64063,0.60156 -0.99219,2.5"
       id="path908"
       inkscape:connector-curvature="0" />
    <path
       style="fill:#1e4c5a;fill-opacity:1;fill-rule:nonzero;stroke:none"
       d="m 906.57422,125.10156 c -0.78906,2.39844 -5.79297,91.97656 -5.17578,92.59766 0.33203,0.33203 4.10156,-0.41406 8.40234,-1.66406 16,-4.64454 31.97656,-15.35157 40.79688,-27.33594 C 959.23437,176.96484 961.06641,181 933.47656,151 c -13.33203,-14.5 -24.77344,-26.57812 -25.375,-26.80078 -0.59375,-0.21484 -1.29687,0.19922 -1.52734,0.90234"
       id="path910"
       inkscape:connector-curvature="0" />
    <path
       style="fill:#729f88;fill-opacity:1;fill-rule:nonzero;stroke:none"
       d="m 870.64844,158.85156 -28.84766,34.25 2.82813,4.29688 c 4.54296,6.90234 54.61328,57.53125 53.99609,54.60156 -0.28906,-1.375 -1.26172,-8.80078 -2.15625,-16.5 -1.79688,-15.39063 -1.73438,-18.19922 1.64062,-73.89844 1.09375,-18 1.85547,-33.75 1.69141,-34.90234 -0.22656,-1.57422 -7.50391,6.44922 -29.15234,32.15234"
       id="path912"
       inkscape:connector-curvature="0" />
  </g>
  <g
     id="g5328"
     transform="matrix(1.2,0,0,1.2,331.99344,-228.58954)">
    <path
       style="fill:#729f88;fill-opacity:1;fill-rule:nonzero;stroke:none"
       d="m 446.69922,233.08984 c -11.80078,2.76172 -24.91797,13.23438 -29.94531,23.91016 -3.44532,7.3125 -5.14063,17 -4.34375,24.80078 2.21875,21.63672 18.48828,37.88281 40.78906,40.72266 l 5.30078,0.67578 4,7.15234 c 3.13281,5.59766 4.97656,7.69141 8.5,9.64844 l 4.5,2.5 170.35156,0.25 c 168.19922,0.24609 170.37891,0.27344 172.89844,2.25 1.39844,1.09766 3.40625,2 4.44922,2 C 825.90234,347 830,342.60156 830,339.69922 830,333 821.85937,330.15234 817.42578,335.30078 L 815.10156,338 652.25,337.75 c -158.80078,-0.24219 -162.92188,-0.29688 -165.75,-2.13281 -3.72656,-2.42188 -5.71875,-4.81641 -8.91016,-10.71875 l -2.48828,-4.59766 6.19922,-2.9375 c 21.34766,-10.10937 30.55859,-37.46484 20.23047,-60.0625 -2.83594,-6.19922 -11.23438,-15.44922 -17.23047,-18.96484 -9.76172,-5.73047 -25.90234,-7.98047 -37.60156,-5.2461 z M 471.5,248.10547 c 2.5,1.16406 6.25391,4.09375 8.44531,6.59375 5.35547,6.10547 7.45313,12.69922 7.45313,23.40234 0,7.69922 -0.33594,9.28906 -3.24219,15.19922 -5.48828,11.16797 -14.55469,16.34766 -27.05469,15.45313 C 442.17969,307.6875 432.76953,298 430.52734,281.39844 c -1.28125,-9.5 2.25391,-21.29297 8.33203,-27.79688 2.84375,-3.04297 8.94141,-6.49609 13.64063,-7.72265 4.59766,-1.20313 14,-0.0977 19,2.22656"
       id="path914"
       inkscape:connector-curvature="0" />
    <path
       style="fill:#729f88;fill-opacity:1;fill-rule:nonzero;stroke:none"
       d="m 710.80078,233.07422 c -12.60156,2.97656 -20,11.71875 -20,23.625 0,13.35937 6.5,20.04687 25.19922,25.93359 13.60156,4.28125 18,7.67188 18,13.86719 0,14.84375 -22,17.39844 -38.19922,4.44141 -2.69922,-2.16016 -3.92969,-2.66407 -4.25,-1.74219 -0.24609,0.71094 -1.15625,3.80078 -2,6.80078 -1.52344,5.39844 -1.50781,5.53125 0.75,7.30078 7.46875,5.83984 19.59766,9.18359 30.5,8.40234 9.80078,-0.70312 14.10938,-2.05078 19.39844,-6.07031 8.01172,-6.08984 11.48828,-16.83203 8.84765,-27.33203 -2.49609,-9.91797 -9.54687,-15.5625 -25.54687,-20.44922 -5.5,-1.67578 -11.44141,-4.13281 -13.19922,-5.45703 -5.9375,-4.46094 -5.10156,-12.21484 1.69922,-15.73828 5.07812,-2.63281 14.69922,-1.70313 23.5,2.27344 3.69922,1.67187 6.91406,3.07031 7.05078,3.07031 0.13672,0 0.74219,-1.94922 1.34766,-4.35156 0.60937,-2.39844 1.37109,-5.06641 1.70312,-5.94922 0.4336,-1.16016 -0.80078,-2.3086 -4.5,-4.1875 -9.80078,-4.96875 -21.0664,-6.6211 -30.30078,-4.4375"
       id="path916"
       inkscape:connector-curvature="0" />
    <path
       style="fill:#42797c;fill-opacity:1;fill-rule:nonzero;stroke:none"
       d="M 0.25,277.19922 0.5,320.5 h 15 v -29.80078 c 0,-20.59766 0.308594,-29.10547 1,-27.55078 0.550781,1.24218 6.402344,14.60156 13.050781,29.80078 L 41.601562,320.5 H 52.5 l 12.199219,-28 c 6.710937,-15.39844 12.5625,-28.80859 13,-29.80078 0.441406,-0.98828 0.800781,11.60156 0.800781,28 V 320.5 L 94,321.10156 V 233.89844 L 75.898438,234.5 62.101562,265.25 c -7.585937,16.89844 -14.003906,30.95312 -14.25,31.19922 -0.25,0.25 -6.757812,-13.55078 -14.5,-30.75 L 19.300781,234.5 9.648438,234.19922 0,233.89844 0.25,277.19922"
       id="path918"
       inkscape:connector-curvature="0" />
    <path
       style="fill:#42797c;fill-opacity:1;fill-rule:nonzero;stroke:none"
       d="m 140.64844,237.25 c -0.74219,1.78906 -8.82422,20.85156 -18,42.44922 C 113.47656,301.30078 106,319.37109 106,319.94922 106,320.60156 109.05078,321 114.05078,321 h 8.05078 l 1.34766,-3.25 c 0.75,-1.80469 2.77734,-6.69922 4.55078,-11 l 3.19922,-7.75 35.10156,0.5 9,21.5 h 8.34766 C 188.25,321 192,320.57422 192,320.05078 192,319.52734 184.07422,300.5 174.39844,277.80078 164.72656,255.10156 156.57422,235.9375 156.30078,235.25 155.96875,234.41797 153.5,234 148.89844,234 c -6.79688,0 -6.91797,0.0469 -8.25,3.25 z m 14.70312,34.5 C 158.44141,279.55078 161,286.22656 161,286.5 c 0,0.27344 -5.69922,0.5 -12.60156,0.5 -6.89844,0 -12.45703,-0.36328 -12.28516,-0.80078 6.5625,-16.69922 12.42969,-30 12.96484,-29.39844 0.33985,0.38281 3.17969,7.14844 6.27344,14.94922"
       id="path920"
       inkscape:connector-curvature="0" />
    <path
       style="fill:#42797c;fill-opacity:1;fill-rule:nonzero;stroke:none"
       d="M 204,277.5 V 321 h 17 v -32 h 9.89844 c 18.40234,0 27.14062,-3.80469 32.39453,-14.10156 2.38281,-4.66407 2.80859,-6.69922 2.80859,-13.39844 0,-10.30078 -3.35547,-17.45313 -10.40234,-22.19141 C 249.14453,234.90234 243.5,234 222.5,234 H 204 Z m 37.5,-29.35547 c 4.96875,2.38281 7,6.25391 7,13.35547 0,11.04687 -4.60156,14.75 -18.5,14.90625 l -8.5,0.0937 -0.30078,-13.94922 c -0.16406,-7.69922 -0.0547,-14.60156 0.25,-15.40234 0.4414,-1.16407 2.19922,-1.33985 8.90234,-0.89844 4.59766,0.30469 9.60547,1.15234 11.14844,1.89453"
       id="path922"
       inkscape:connector-curvature="0" />
    <path
       style="fill:#42797c;fill-opacity:1;fill-rule:nonzero;stroke:none"
       d="M 278,277.5 V 321 l 56.5,-0.5 0.60156,-13.5 H 296 v -73 h -18 v 43.5"
       id="path924"
       inkscape:connector-curvature="0" />
    <path
       style="fill:#42797c;fill-opacity:1;fill-rule:nonzero;stroke:none"
       d="M 346,277.5 V 321 h 56 v -14 h -38 v -25 h 31 v -14 h -31 v -20 h 38 v -14 h -56 v 43.5"
       id="path926"
       inkscape:connector-curvature="0" />
    <path
       style="fill:#729f88;fill-opacity:1;fill-rule:nonzero;stroke:none"
       d="m 521,258.25 c 0,13.30078 0.45312,27.41016 1.00391,31.25 1.25,8.69922 5.49218,17.98437 10.49609,22.97656 13.69922,13.66406 43.24609,13.67578 56.89844,0.0234 5.21875,-5.21875 9.36718,-14.5 10.54297,-23.60156 0.52734,-4.08203 0.98046,-18.04688 1.00781,-31.14844 L 601,234 h -17 v 24.30078 c 0,31.69922 -1.07031,37.64844 -8,44.42969 -4.03516,3.95312 -10.39844,5.73047 -17.69922,4.95312 -7.40234,-0.78906 -12.82422,-4.51562 -16.26953,-11.18359 -2.51172,-4.86719 -2.53516,-5.10156 -2.83203,-33.69922 L 538.89844,234 H 521 v 24.25"
       id="path928"
       inkscape:connector-curvature="0" />
    <path
       style="fill:#729f88;fill-opacity:1;fill-rule:nonzero;stroke:none"
       d="m 620,277 v 43 h 56 v -13 h -39 v -25 h 32 V 268 H 636.89844 L 637.5,247.5 676,247 v -13 h -56 v 43"
       id="path930"
       inkscape:connector-curvature="0" />
    <path
       style="fill:#729f88;fill-opacity:1;fill-rule:nonzero;stroke:none"
       d="m 754,240.5 v 6.5 h 29 v 73 h 18 v -73 h 29 v -13 h -76 v 6.5"
       id="path932"
       inkscape:connector-curvature="0" />
  </g>
</svg>
